<?xml version="1.0" encoding="utf-8"?>
<!-- Generator: Adobe Illustrator 27.3.1, SVG Export Plug-In . SVG Version: 6.00 Build 0)  -->
<svg version="1.1" id="Calque_1" xmlns="http://www.w3.org/2000/svg" xmlns:xlink="http://www.w3.org/1999/xlink" x="0px" y="0px"
	 viewBox="0 0 100 50" style="enable-background:new 0 0 100 50;" xml:space="preserve">
<style type="text/css">
	.st0{fill-rule:evenodd;clip-rule:evenodd;fill:#181818;}
	.st1{fill-rule:evenodd;clip-rule:evenodd;fill:#F3F3F3;}
</style>
<g id="Bell_Logo_Desktop">
	<g>
		<path id="Path" class="st0" d="M99.9,25c0,7.1-5.4,13.5-15.2,18.2C75.6,47.6,63.2,50,50,50c-18.7,0-35.6-5-44.1-13
			C2,33.4,0,29.2,0,25c0-4.3,2-8.4,5.9-12C14.4,5,31.3,0,50,0c18.7,0,35.6,5,44.1,13C97.9,16.6,99.9,20.7,99.9,25z"/>
		<path id="Path_00000078724446234641242100000004791299632900402829_" class="st1" d="M97.4,25c0-3.5-1.8-7.1-5.1-10.2
			c-3.9-3.7-9.9-6.7-17.2-8.9C67.6,3.7,58.9,2.5,50,2.5c-8.9,0-17.6,1.2-25.1,3.4c-7.4,2.2-13.3,5.2-17.2,8.9
			C4.3,17.9,2.5,21.4,2.5,25c0,3.5,1.8,7.1,5.1,10.2c3.9,3.7,9.9,6.7,17.2,8.9c7.5,2.2,16.2,3.4,25.1,3.4c12.9,0,24.9-2.3,33.7-6.5
			C92.6,36.7,97.4,31,97.4,25z"/>
		<path id="Path_00000154394696793236829230000008752476684119967162_" class="st0" d="M94.9,25c0,2.3-0.9,4.6-2.7,6.8
			c-2.1,2.6-5.3,4.9-9.5,6.9c-8.5,4.1-20.1,6.3-32.7,6.3c-8.7,0-17.1-1.1-24.4-3.3c-7-2.1-12.6-4.9-16.2-8.3C7.4,31.5,5,28.6,5,25
			c0-3.6,2.3-6.5,4.3-8.4c3.6-3.4,9.2-6.3,16.2-8.3C32.8,6.2,41.3,5,50,5c8.7,0,17.1,1.1,24.4,3.3c7,2.1,12.6,4.9,16.2,8.3
			C92.6,18.5,94.9,21.4,94.9,25z"/>
		<path id="Fill-1" class="st1" d="M85.6,33.9l-0.3-0.4h-0.2v0.4H85v-1h0.4c0.3,0,0.4,0.1,0.4,0.3c0,0.2-0.1,0.3-0.3,0.3l0.3,0.5
			H85.6z M85.4,32.6c-0.4,0-0.8,0.3-0.8,0.8c0,0.4,0.3,0.8,0.8,0.8c0.4,0,0.7-0.3,0.7-0.8C86.1,32.9,85.8,32.6,85.4,32.6z
			 M85.6,33.2c0-0.1-0.1-0.1-0.2-0.1h-0.2v0.3h0.2C85.5,33.4,85.6,33.3,85.6,33.2z M86.3,33.4c0-0.6-0.4-1-1-1c-0.5,0-1,0.4-1,1
			c0,0.6,0.4,1,1,1C85.9,34.4,86.3,34,86.3,33.4z"/>
		<polygon id="Path_00000181077421590177980130000007216012741877257365_" class="st1" points="83.7,29.7 77.1,29.7 77.1,15.6 
			69.8,15.6 69.8,34.3 83.7,34.3 		"/>
		<polygon id="Path_00000147203617938797436740000004790005602974041272_" class="st1" points="68.2,29.7 61.5,29.7 61.5,15.6 
			54.2,15.6 54.2,34.3 68.2,34.3 		"/>
		<polygon id="Path_00000049199275591265852030000018225383302511341998_" class="st1" points="52.2,15.6 37.5,15.6 37.5,34.3 
			52.2,34.3 52.2,29.7 44.8,29.7 44.8,26.7 52.2,26.7 52.2,23.3 44.8,23.3 44.8,20.6 52.2,20.6 		"/>
		<path id="Path_00000013178991022960028760000014701379217370038186_" class="st1" d="M36,28.7c-0.1-1.1-0.9-2-1.3-2.4
			c-0.7-0.7-2.2-1.5-2.2-1.5s1.2-0.5,2-1.2c0.7-0.7,1.1-1.6,1.1-3.3c0-1.5-0.7-3-2.1-3.9c-1.1-0.7-3.1-0.7-4.8-0.7
			c-0.6,0-11.2,0-11.2,0v18.7h13.8c0,0,2.1,0,3-0.6c0.8-0.5,1.2-1,1.5-1.7C36.1,30.8,36.1,30,36,28.7z"/>
		<path id="Path_00000155858444774708189080000007011210337469604782_" class="st0" d="M29.1,21.4c0-1.7-1.8-1.8-1.8-1.8h-2.1v3.7
			h2.1C27.3,23.3,29.1,23.3,29.1,21.4z"/>
		<path id="Path_00000114793345876383736470000005700511252409370780_" class="st0" d="M29.1,28.5c0,2.1-1.8,1.9-1.8,1.9h-2.1v-3.7
			h2.1C27.3,26.8,29.1,26.7,29.1,28.5L29.1,28.5z"/>
	</g>
</g>
</svg>
