<?xml version="1.0" encoding="UTF-8"?>
<svg width="100px" height="50px" viewBox="0 0 100 50" version="1.1" xmlns="http://www.w3.org/2000/svg" xmlns:xlink="http://www.w3.org/1999/xlink">
    <!-- Generator: Sketch 54.1 (76490) - https://sketchapp.com -->
    <title>Bell_Logo_Desktop</title>
    <desc>Created with Sketch.</desc>
    <g id="Bell_Logo_Desktop" stroke="none" stroke-width="1" fill="none" fill-rule="evenodd">
        <g>
            <path d="M99.9395299,24.9837607 C99.9395299,32.0702991 94.5568376,38.5318376 84.7826923,43.1794872 C75.5767094,47.557265 63.2134615,49.9696581 49.9702991,49.9696581 C31.2976496,49.9696581 14.4038462,45.0038462 5.87863248,37.0108974 C2.03247863,33.4029915 -3.55271368e-14,29.2446581 -3.55271368e-14,24.9837607 C-3.55271368e-14,20.725641 2.03247863,16.566453 5.87863248,12.9598291 C14.4038462,4.96538462 31.2976496,4.19220214e-13 49.9702991,4.19220214e-13 C68.6438034,4.19220214e-13 85.5369658,4.96538462 94.0628205,12.9598291 C97.907906,16.566453 99.9395299,20.725641 99.9395299,24.9837607 Z" id="Path" fill="#FFFFFF"></path>
            <path d="M97.4288462,24.9837607 C97.4288462,21.4350427 95.6709402,17.9102564 92.3452991,14.7910256 C88.4474359,11.1361111 82.4888889,8.05854701 75.1138889,5.89081197 C67.5905983,3.67970085 58.8961538,2.51068376 49.9702991,2.51068376 C41.0448718,2.51068376 32.3504274,3.67970085 24.8271368,5.89081197 C17.4521368,8.05854701 11.4938034,11.1361111 7.59594017,14.7912393 C4.26923077,17.9106838 2.51068376,21.4352564 2.51068376,24.9837607 C2.51068376,28.5331197 4.26923077,32.0587607 7.59636752,35.1799145 C11.4938034,38.8337607 17.4523504,41.9113248 24.8271368,44.0788462 C32.350641,46.2903846 41.0450855,47.4589744 49.9702991,47.4589744 C62.8461538,47.4589744 74.8264957,45.1339744 83.7044872,40.9121795 C92.5547009,36.7036325 97.4288462,31.0470085 97.4288462,24.9837607 Z" id="Path" fill="#000000"></path>
            <path d="M94.9181624,24.9837607 C94.9181624,27.3044872 93.9929487,29.5918803 92.1683761,31.782265 C90.0401709,34.3371795 86.8297009,36.6459402 82.6262821,38.6446581 C74.0784188,42.7098291 62.4807692,44.9482906 49.9702991,44.9482906 C41.2814103,44.9482906 32.8318376,43.8147436 25.5350427,41.6700855 C18.5352564,39.6128205 12.925641,36.7348291 9.31410256,33.3485043 C7.35576923,31.5117521 5.02136752,28.5694444 5.02136752,24.9837607 C5.02136752,21.3995726 7.35534188,18.4587607 9.31324786,16.6228632 C12.9258547,13.2350427 18.5352564,10.3570513 25.5352564,8.29957265 C32.8316239,6.15491453 41.2811966,5.02136752 49.9702991,5.02136752 C58.6596154,5.02136752 67.109188,6.15491453 74.4059829,8.29957265 C81.4057692,10.3570513 87.0151709,13.2350427 90.6275641,16.6222222 C92.5848291,18.4583333 94.9181624,21.3989316 94.9181624,24.9837607 Z" id="Path" fill="#FFFFFF"></path>
            <path d="M85.615812,33.9455128 L85.341453,33.4987179 L85.1792735,33.4987179 L85.1792735,33.9455128 L85.0064103,33.9455128 L85.0064103,32.9002137 L85.4061966,32.9002137 C85.6619658,32.9002137 85.7901709,32.9886752 85.7901709,33.200641 C85.7901709,33.3912393 85.6728632,33.4668803 85.5143162,33.4863248 L85.8094017,33.9455128 L85.615812,33.9455128 Z M85.3850427,32.6 C84.9608974,32.6 84.6307692,32.9318376 84.6307692,33.4040598 C84.6307692,33.8457265 84.9192308,34.208547 85.3850427,34.208547 C85.8042735,34.208547 86.1344017,33.8820513 86.1344017,33.4040598 C86.1344017,32.9318376 85.8042735,32.6 85.3850427,32.6 Z M85.6173077,33.1884615 C85.6173077,33.0628205 85.4933761,33.0444444 85.3878205,33.0444444 L85.1792735,33.0444444 L85.1792735,33.3525641 L85.3728632,33.3525641 C85.5034188,33.3525641 85.6173077,33.3395299 85.6173077,33.1884615 Z M86.3440171,33.4040598 C86.3440171,32.8183761 85.8987179,32.4307692 85.3850427,32.4307692 C84.8649573,32.4307692 84.4205128,32.8183761 84.4205128,33.4040598 C84.4205128,33.9602564 84.8202991,34.3803419 85.3850427,34.3803419 C85.8987179,34.3803419 86.3440171,33.9888889 86.3440171,33.4040598 Z" id="Fill-1" fill="#000000"></path>
            <polygon id="Path" fill="#D52F33" points="83.7314103 29.717094 77.1012821 29.6786325 77.1012821 15.6200855 69.8074786 15.6200855 69.8074786 34.3350427 83.7314103 34.3350427"></polygon>
            <polygon id="Path" fill="#D52F33" points="68.167735 29.7014957 61.5371795 29.6655983 61.5371795 15.6070513 54.240812 15.6070513 54.240812 34.3200855 68.167735 34.3200855"></polygon>
            <polygon id="Path" fill="#D52F33" points="52.1705128 15.6070513 37.5147436 15.615812 37.5147436 34.3333333 52.1705128 34.3200855 52.1705128 29.6786325 44.817094 29.6786325 44.817094 26.6647436 52.1705128 26.6647436 52.1705128 23.2754274 44.817094 23.2754274 44.817094 20.5523504 52.1705128 20.5523504"></polygon>
            <path d="M35.9901709,28.7059829 C35.8707265,27.5771368 35.1320513,26.6814103 34.7305556,26.2858974 C34.0542735,25.6162393 32.5425214,24.800641 32.5425214,24.800641 C32.5425214,24.800641 33.7523504,24.2688034 34.4987179,23.5730769 C35.2431624,22.8799145 35.5912393,21.9455128 35.5912393,20.250641 C35.5912393,18.717094 34.9292735,17.249359 33.5027778,16.3132479 C32.4151709,15.5982906 30.4444444,15.6025641 28.6880342,15.6025641 C28.0752137,15.6025641 17.457265,15.6070513 17.457265,15.6070513 L17.457265,34.3200855 L31.2153846,34.3200855 C31.2153846,34.3200855 33.3106838,34.2831197 34.233547,33.7089744 C35.0619658,33.1893162 35.474359,32.7119658 35.6942308,31.9982906 C36.0568376,30.8051282 36.1211538,29.9641026 35.9901709,28.7059829 Z" id="Path" fill="#D52F33"></path>
            <path d="M29.1277778,21.4113248 C29.1277778,19.6694444 27.2861111,19.6038462 27.2861111,19.6038462 L25.2155983,19.6038462 L25.2155983,23.2754277 L27.315812,23.2754274 C27.315812,23.2754274 29.1277778,23.282265 29.1277778,21.4113248 Z" id="Path" fill="#FFFFFF"></path>
            <path d="M29.1435897,28.4955128 C29.1435897,30.6260684 27.3290598,30.4262821 27.3290598,30.4262821 L25.2284188,30.4262821 L25.2284188,26.7510684 L27.2995726,26.7510684 C27.2995726,26.7510684 29.1435897,26.6717949 29.1435897,28.4955128 L29.1435897,28.4955128 Z" id="Path" fill="#FFFFFF"></path>
        </g>
    </g>
</svg>