<svg width="69" height="35" viewBox="0 0 69 35" fill="none" xmlns="http://www.w3.org/2000/svg">
<path fill-rule="evenodd" clip-rule="evenodd" d="M69 17.2492C69 22.1419 65.2837 26.6031 58.5355 29.8119C52.1795 32.8344 43.6437 34.4999 34.5004 34.4999C21.6084 34.4999 9.94467 31.0714 4.05871 25.553C1.40326 23.062 0 20.191 0 17.2492C0 14.3093 1.40326 11.4378 4.05871 8.94769C9.94467 3.42819 21.6084 0 34.5004 0C47.3929 0 59.0562 3.42819 64.9426 8.94769C67.5973 11.4378 69 14.3093 69 17.2492Z" fill="white"/>
<path fill-rule="evenodd" clip-rule="evenodd" d="M67.2666 17.2492C67.2666 14.7991 66.0529 12.3655 63.7568 10.212C61.0656 7.68856 56.9518 5.56376 51.8599 4.06711C46.6657 2.54052 40.6629 1.73341 34.5003 1.73341C28.3381 1.73341 22.3353 2.54052 17.1411 4.06711C12.0492 5.56376 7.9355 7.68856 5.24435 10.2121C2.94753 12.3658 1.7334 14.7993 1.7334 17.2492C1.7334 19.6998 2.94753 22.1339 5.24464 24.2888C7.9355 26.8115 12.0494 28.9363 17.1411 30.4328C22.3354 31.9597 28.3382 32.7665 34.5003 32.7665C43.3901 32.7665 51.6615 31.1613 57.791 28.2465C63.9014 25.3408 67.2666 21.4354 67.2666 17.2492Z" fill="black"/>
<path fill-rule="evenodd" clip-rule="evenodd" d="M65.5332 17.2492C65.5332 18.8515 64.8944 20.4308 63.6347 21.943C62.1653 23.707 59.9488 25.301 57.0466 26.681C51.1451 29.4876 43.1378 31.0331 34.5004 31.0331C28.5014 31.0331 22.6677 30.2505 17.6299 28.7698C12.7971 27.3494 8.92411 25.3624 6.43064 23.0244C5.07857 21.7563 3.46686 19.7248 3.46686 17.2492C3.46686 14.7746 5.07827 12.7443 6.43005 11.4767C8.92425 9.13771 12.7971 7.15069 17.63 5.73017C22.6675 4.24946 28.5013 3.46684 34.5004 3.46684C40.4996 3.46684 46.3334 4.24946 51.3712 5.73017C56.204 7.15069 60.0768 9.13771 62.5709 11.4763C63.9222 12.744 65.5332 14.7742 65.5332 17.2492Z" fill="white"/>
<path fill-rule="evenodd" clip-rule="evenodd" d="M59.1107 23.4366L58.9212 23.1281H58.8093V23.4366H58.6899V22.7149H58.9659C59.1425 22.7149 59.231 22.776 59.231 22.9223C59.231 23.0539 59.15 23.1061 59.0406 23.1196L59.2443 23.4366H59.1107ZM58.9513 22.5076C58.6585 22.5076 58.4306 22.7367 58.4306 23.0628C58.4306 23.3677 58.6297 23.6182 58.9513 23.6182C59.2408 23.6182 59.4687 23.3928 59.4687 23.0628C59.4687 22.7367 59.2408 22.5076 58.9513 22.5076ZM59.1117 22.9139C59.1117 22.8272 59.0261 22.8145 58.9532 22.8145H58.8093V23.0272H58.9429C59.0331 23.0272 59.1117 23.0182 59.1117 22.9139ZM59.6134 23.0628C59.6134 22.6584 59.306 22.3908 58.9513 22.3908C58.5923 22.3908 58.2854 22.6584 58.2854 23.0628C58.2854 23.4468 58.5614 23.7368 58.9513 23.7368C59.306 23.7368 59.6134 23.4665 59.6134 23.0628Z" fill="black"/>
<path fill-rule="evenodd" clip-rule="evenodd" d="M57.8096 20.5172L53.2321 20.4906V10.7844H48.1963V23.7055H57.8096V20.5172Z" fill="#D52F33"/>
<path fill-rule="evenodd" clip-rule="evenodd" d="M47.0642 20.5064L42.4863 20.4817V10.7754H37.4488V23.6952H47.0642V20.5064Z" fill="#D52F33"/>
<path fill-rule="evenodd" clip-rule="evenodd" d="M36.0195 10.7754L25.9009 10.7814V23.7043L36.0195 23.6952V20.4907H30.9425V18.4098H36.0195V16.0698H30.9425V14.1897H36.0195V10.7754Z" fill="#D52F33"/>
<path fill-rule="evenodd" clip-rule="evenodd" d="M24.8482 19.8191C24.7658 19.0397 24.2558 18.4213 23.9786 18.1483C23.5117 17.6859 22.4679 17.1228 22.4679 17.1228C22.4679 17.1228 23.3032 16.7556 23.8185 16.2753C24.3325 15.7967 24.5728 15.1516 24.5728 13.9814C24.5728 12.9226 24.1158 11.9093 23.1309 11.263C22.38 10.7693 21.0194 10.7723 19.8067 10.7723C19.3836 10.7723 12.0528 10.7754 12.0528 10.7754V23.6952H21.5516C21.5516 23.6952 22.9983 23.6697 23.6354 23.2733C24.2074 22.9145 24.4921 22.5849 24.6439 22.0922C24.8943 21.2684 24.9387 20.6878 24.8482 19.8191Z" fill="#D52F33"/>
<path fill-rule="evenodd" clip-rule="evenodd" d="M20.1103 14.7828C20.1103 13.5801 18.8388 13.5348 18.8388 13.5348H17.4093V16.0698H18.8593C18.8593 16.0698 20.1103 16.0745 20.1103 14.7828Z" fill="white"/>
<path fill-rule="evenodd" clip-rule="evenodd" d="M20.1213 19.6738C20.1213 21.1448 18.8685 21.0068 18.8685 21.0068H17.4182V18.4694H18.8481C18.8481 18.4694 20.1213 18.4147 20.1213 19.6738Z" fill="white"/>
</svg>
